<svg width="24" height="24" viewBox="0 0 24 24" fill="none" xmlns="http://www.w3.org/2000/svg" class="flex shrink-0 h-32 w-3h-32 md:w-fit" data-sentry-element="svg" data-sentry-component="SLogoMarkBlack" data-sentry-source-file="SLogoMarkBlack.tsx"><circle cx="12" cy="12" r="12" fill="#222222" data-sentry-element="circle" data-sentry-source-file="SLogoMarkBlack.tsx"></circle><path d="M18.1412 14.2941V11.8353C18.1412 11.2 17.7176 10.6706 17.0941 10.6706H10.3059C9.8 10.6706 9.48235 10.353 9.48235 9.84709V9.02356C9.48235 8.51768 9.8 8.20003 10.3059 8.20003H17.0941V4.92944H11.6C11.3294 4.92944 11.0706 5.03533 10.8588 5.2118L6.49412 8.83533C6.23529 9.05885 6.09412 9.38827 6.09412 9.72944V12.1883C6.09412 12.8118 6.62353 13.353 7.25882 13.353H13.6941C14.3176 13.353 14.7412 13.6589 14.7412 14.2941V14.8824C14.7412 15.5177 14.3294 15.8236 13.6941 15.8236H6.09412V19.0941H12.5176C12.7765 19.0941 13.0353 19.0118 13.2353 18.8471L17.7176 15.2236C18 15 18.1412 14.6471 18.1412 14.2941Z" fill="white" data-sentry-element="path" data-sentry-source-file="SLogoMarkBlack.tsx"></path></svg>