<svg width="298" height="50" viewBox="0 0 298 50" fill="none" xmlns="http://www.w3.org/2000/svg" class="flex shrink-0 h-[28px] w-[166px]"><path fill-rule="evenodd" clip-rule="evenodd" d="M25 50C38.8071 50 50 38.8071 50 25C50 11.1929 38.8071 0 25 0C11.1929 0 0 11.1929 0 25C0 38.8071 11.1929 50 25 50ZM37.7941 24.6569V29.7795C37.7941 30.5148 37.5 31.2501 36.9118 31.7157L27.5735 39.2648C27.1569 39.6079 26.6176 39.7795 26.0784 39.7795H12.6961V32.9658H28.5294C29.8529 32.9658 30.7108 32.3285 30.7108 31.005V29.7795C30.7108 28.4559 29.8284 27.8187 28.5294 27.8187H15.1225C13.799 27.8187 12.6961 26.6912 12.6961 25.3922V20.2697C12.6961 19.5589 12.9902 18.8726 13.5294 18.4069L22.6225 10.8579C23.0637 10.4903 23.6029 10.2697 24.1667 10.2697H35.6127V17.0834H21.4706C20.4167 17.0834 19.7549 17.7452 19.7549 18.7991V20.5148C19.7549 21.5687 20.4167 22.2305 21.4706 22.2305H35.6127C36.9118 22.2305 37.7941 23.3334 37.7941 24.6569Z" fill="#222222"></path><path d="M296.293 3.06546V41.8989H289.839V3.05683L296.293 3.06546ZM89.2216 25.1974H75.7754C75.5562 25.2287 75.3328 25.2085 75.1227 25.1383C74.9127 25.068 74.7219 24.9497 74.5653 24.7927C74.4088 24.6357 74.2908 24.4442 74.2208 24.2336C74.1507 24.0229 74.1306 23.7988 74.1618 23.5789V22.5C74.1306 22.2802 74.1507 22.056 74.2208 21.8454C74.2908 21.6347 74.4088 21.4433 74.5653 21.2863C74.7219 21.1292 74.9127 21.0109 75.1227 20.9407C75.3328 20.8705 75.5562 20.8502 75.7754 20.8816H89.7594L89.7804 14.4079H78.8621C78.3246 14.4078 77.804 14.5964 77.3905 14.9409L68.5397 22.1531C68.2791 22.3703 68.0694 22.6424 67.9256 22.9501C67.7817 23.2578 67.7073 23.5935 67.7076 23.9334V28.4277C67.6933 28.7153 67.7391 29.0027 67.842 29.2715C67.945 29.5403 68.1028 29.7845 68.3054 29.9885C68.5079 30.1925 68.7508 30.3518 69.0184 30.4561C69.2859 30.5604 69.5723 30.6075 69.859 30.5943H83.8431C84.0623 30.5629 84.2857 30.5831 84.4957 30.6534C84.7058 30.7236 84.8966 30.8419 85.0532 30.999C85.2097 31.156 85.3277 31.3474 85.3977 31.5581C85.4677 31.7687 85.4879 31.9928 85.4566 32.2127V33.8311C85.4566 34.9101 84.9086 35.4242 83.8431 35.4495L67.7076 35.4743V41.9232H80.5961C81.1139 41.923 81.6165 41.748 82.023 41.4264L90.8373 34.3706C91.1769 34.1247 91.4521 33.8 91.6394 33.4242C91.8268 33.0484 91.9206 32.6327 91.913 32.2127V27.8969C91.935 27.5366 91.8804 27.1758 91.753 26.8383C91.6255 26.5008 91.428 26.1942 91.1736 25.939C90.9191 25.6838 90.6135 25.4857 90.277 25.3579C89.9405 25.23 89.5808 25.1753 89.2216 25.1974ZM124.152 28.3652C124.152 37.0787 117.806 43 109.673 43C101.54 43 95.1939 37.0787 95.1939 28.3652C95.1939 19.6516 101.54 13.7309 109.673 13.7309C117.805 13.7309 124.152 19.6521 124.152 28.3652ZM117.135 28.3652C117.135 23.3383 114.115 19.8026 109.659 19.8026C105.204 19.8026 102.21 23.3383 102.21 28.3652C102.21 33.392 105.204 37.0658 109.659 37.0658C114.114 37.0658 117.135 33.3925 117.135 28.3652ZM192.985 36.7405C188.472 36.7405 185.52 33.3882 185.52 28.363C185.52 23.3378 188.747 19.985 192.985 19.985C196.456 19.985 198.541 21.8677 199.455 24.3936L205.538 20.8433C203.333 16.4935 199.03 13.7314 192.87 13.7314C184.849 13.7314 178.502 19.7595 178.502 28.363C178.502 36.9665 184.849 43 192.87 43C198.894 43 203.17 40.3933 205.394 36.2566L199.277 32.7171C198.274 35.1846 196.349 36.7405 192.985 36.7405ZM235.649 27.8969V30.0548H215.21C215.489 33.7416 218.165 36.9676 222.175 36.9676C226.073 36.9676 228.134 34.7892 229.081 32.8342L234.817 36.1854C232.923 39.0899 229.693 43 222.285 43C214.043 43 208.086 36.7421 208.086 28.1418C208.086 19.7633 213.821 13.7309 221.952 13.7309C229.972 13.7309 235.649 19.5739 235.649 27.8969ZM228.245 25.5167C227.744 21.9978 225.517 19.7633 221.899 19.7633C217.944 19.7633 215.884 22.1094 215.327 25.5167H228.245ZM248.011 2.53516L240.652 8.66358C240.391 8.88063 240.181 9.15271 240.037 9.46043C239.893 9.76816 239.819 10.1039 239.819 10.4438V41.9032H246.811V21.9427C246.797 21.6556 246.843 21.3686 246.946 21.1003C247.049 20.832 247.207 20.5884 247.41 20.3851C247.612 20.1818 247.855 20.0233 248.123 19.9199C248.39 19.8166 248.676 19.7705 248.963 19.7848H253.803V14.3901H248.963C248.676 14.4043 248.39 14.3582 248.123 14.2548C247.855 14.1514 247.613 13.9929 247.41 13.7896C247.207 13.5864 247.049 13.3428 246.946 13.0745C246.843 12.8063 246.797 12.5193 246.811 12.2322V10.6138C246.798 10.3268 246.844 10.0403 246.948 9.77242C247.051 9.50456 247.209 9.26129 247.412 9.05818C247.614 8.85507 247.857 8.69659 248.124 8.59288C248.391 8.48917 248.677 8.44251 248.963 8.45588H255.417V2H249.481C248.944 2.00047 248.424 2.18879 248.011 2.53246V2.53516ZM147.309 28.7072C147.309 33.6223 145.034 36.5263 140.855 36.5263H137.09C136.804 36.5405 136.518 36.4945 136.25 36.391C135.983 36.2876 135.74 36.1292 135.537 35.9259C135.335 35.7226 135.177 35.479 135.074 35.2107C134.97 34.9425 134.925 34.6556 134.939 34.3684V14.4079H127.947V33.9131C127.946 34.253 128.021 34.5887 128.165 34.8964C128.309 35.2041 128.519 35.4762 128.779 35.6934L136.18 41.9297C136.593 42.2739 137.113 42.4622 137.651 42.4621H138.704C143.771 42.4621 146.195 40.1759 147.309 37.6069H147.847V41.9227H154.301L154.327 14.4095H147.309V28.7072ZM167.586 14.9404L159.974 21.2754C159.714 21.4924 159.504 21.7645 159.36 22.0723C159.216 22.38 159.142 22.7158 159.142 23.0557V41.9227H166.134V23.0411C166.12 22.7539 166.166 22.467 166.269 22.1987C166.372 21.9304 166.53 21.6868 166.732 21.4835C166.935 21.2801 167.178 21.1217 167.445 21.0183C167.713 20.9149 167.999 20.8689 168.285 20.8832H176.353V14.4095H169.059C168.522 14.4091 168.001 14.5968 167.588 14.9404H167.586ZM277.469 28.6851C277.469 33.6002 275.193 36.5042 271.014 36.5042H267.249C266.963 36.5185 266.677 36.4725 266.41 36.3691C266.142 36.2657 265.899 36.1072 265.697 35.9039C265.494 35.7006 265.336 35.457 265.233 35.1887C265.13 34.9204 265.084 34.6335 265.098 34.3463V14.3858H258.106V33.8899C258.106 34.2298 258.18 34.5655 258.324 34.8732C258.468 35.1809 258.678 35.4531 258.939 35.6702L266.339 41.9065C266.752 42.2507 267.273 42.439 267.81 42.4389H268.863C273.931 42.4389 276.355 40.1527 277.469 37.5837H278.006V41.8995H284.461L284.486 14.3863H277.469V28.6851Z" fill="#222222"></path></svg>